Coordinates
version=1
nRows=22
nColumns=24
inDegrees=yes

Units are S.I. units (second, meters, Newtons, ...)
Angles are in degrees.

endheader
time	pelvis_tilt	pelvis_list	pelvis_rotation	pelvis_tx	pelvis_ty	pelvis_tz	hip_flexion_r	hip_adduction_r	hip_rotation_r	knee_angle_r	ankle_angle_r	subtalar_angle_r	mtp_angle_r	hip_flexion_l	hip_adduction_l	hip_rotation_l	knee_angle_l	ankle_angle_l	subtalar_angle_l	mtp_angle_l	lumbar_extension	lumbar_bending	lumbar_rotation
      0.94566667	     -5.25692719	      0.83372482	     -2.45145798	     -0.11539390	      1.01304492	      0.27382268	     -5.45704384	      1.08927083	      2.67711565	    -17.96834424	      4.04097563	     -5.51819928	     15.63691043	     19.70794520	      0.61297063	     -2.16698525	      3.60353518	      2.66935927	      0.22040074	      1.43642832	     -9.18004582	      3.05623051	      8.14452755
      0.94983333	     -5.25184989	      0.83738450	     -2.47357602	     -0.10973743	      1.01231366	      0.27337004	     -5.58081784	      1.01262230	      2.48729836	    -18.36901860	      3.87696928	     -5.33639459	     15.78404420	     19.68691641	      0.69410702	     -2.01756212	      3.71907416	      2.58030992	      0.35020291	      1.45708293	     -9.11667701	      3.02458921	      8.11266388
      0.95400000	     -5.26263401	      0.88649073	     -2.50919178	     -0.10406475	      1.01152652	      0.27288665	     -5.65236648	      0.87797614	      2.28845704	    -18.83606050	      3.72076370	     -5.18029332	     19.24788983	     19.65681226	      0.82023089	     -1.70440463	      3.81384133	      2.31706778	      0.10217256	      1.96638817	     -9.04196285	      2.99474647	      8.01853295
      0.95816667	     -5.24177589	      0.90956165	     -2.50382639	     -0.09834763	      1.01081917	      0.27238287	     -5.77704906	      0.77668162	      2.05921394	    -19.26590347	      3.51493522	     -4.92882545	     19.32372168	     19.65711486	      0.93024176	     -1.51690331	      3.69402822	      2.28240771	      0.27767774	      1.97860311	     -9.00082871	      2.94625905	      8.00001453
      0.96233333	     -5.22896983	      0.97215846	     -2.51496817	     -0.09260610	      1.01009869	      0.27187980	     -5.86744083	      0.63300709	      1.85559940	    -19.74294736	      3.26853208	     -4.83297413	     19.37315718	     19.66523012	      1.07847181	     -1.33119611	      3.50699524	      2.12533152	      0.28474721	      1.98530716	     -8.95297365	      2.89584662	      7.97547244
      0.96650000	     -5.20911181	      1.05231618	     -2.52205777	     -0.08684879	      1.00936211	      0.27133112	     -5.91895606	      0.45205858	      1.56763590	    -20.32252837	      3.17148360	     -4.41580464	     19.61963968	     19.62985172	      1.24704708	     -0.92914385	      3.32965320	      1.84181627	     -0.04846758	      2.02381751	     -8.89234196	      2.80706466	      7.84335777
      0.97066667	     -5.19852034	      1.13755219	     -2.51023802	     -0.08106402	      1.00863200	      0.27079017	     -5.96900773	      0.27937017	      1.31259802	    -20.87339058	      2.92310599	     -4.21870655	     20.02881512	     19.62650059	      1.42580828	     -0.51635643	      3.04335461	      1.50895232	     -0.45454836	      2.09329273	     -8.82552789	      2.69422085	      7.74968483
      0.97483333	     -5.14464885	      1.24660428	     -2.49563860	     -0.07523319	      1.00798391	      0.27021581	     -6.05399932	      0.07423412	      1.04422846	    -21.44299801	      2.64273304	     -4.02006802	     20.49459039	     19.57098857	      1.63428147	     -0.08820770	      2.71045519	      1.15994728	     -0.85461801	      2.17461205	     -8.80933271	      2.58907767	      7.65275399
      0.97900000	     -5.11706510	      1.35634382	     -2.48127701	     -0.06939200	      1.00730850	      0.26967737	     -6.10249567	     -0.12278975	      0.81152691	    -22.00726754	      2.19986382	     -4.04778242	     26.10891287	     19.57370716	      1.84068027	      0.28274896	      2.26378182	      0.79881537	     -1.25149506	      3.20825018	     -8.75525753	      2.44041798	      7.57844780
      0.98316667	     -5.09162017	      1.47572463	     -2.44909673	     -0.06355031	      1.00662857	      0.26907841	     -6.11347249	     -0.33854677	      0.52233170	    -22.65498553	      1.86193676	     -3.83541610	     26.18742423	     19.58288230	      2.06674993	      0.71122000	      1.76497377	      0.42488694	     -1.71305208	      3.20717387	     -8.70072858	      2.30224984	      7.47103448
      0.98733333	     -5.02676177	      1.61566958	     -2.41524304	     -0.05768012	      1.00602797	      0.26847463	     -6.15547180	     -0.57691733	      0.24348203	    -23.31502393	      1.45813549	     -3.70804842	     26.34742131	     19.54269272	      2.31907644	      1.17409343	      1.24030396	     -0.01196018	     -2.31366174	      3.21618096	     -8.68765047	      2.13296808	      7.35545366
      0.99150000	     -4.99988844	      1.75586338	     -2.37709237	     -0.05182170	      1.00537882	      0.26785869	     -6.13243342	     -0.81231678	     -0.02157531	    -24.01458937	      1.00692631	     -3.61099275	     26.59222792	     19.56026323	      2.57381224	      1.64376879	      0.64644213	     -0.44571047	     -2.95909944	      3.23479419	     -8.63486452	      1.97403334	      7.23923235
      0.99566667	     -4.95351363	      1.90534387	     -2.32901909	     -0.04596065	      1.00475827	      0.26722576	     -6.10469745	     -1.06104293	     -0.30894455	    -24.75868596	      0.51093294	     -3.53682712	     26.89488842	     19.56326961	      2.84448343	      2.10777503	      0.01311336	     -0.88027457	     -3.61220072	      3.25589049	     -8.60082287	      1.78990821	      7.11451203
      0.99983333	     -4.89719155	      2.06373129	     -2.29324089	     -0.04009532	      1.00418489	      0.26659731	     -6.07368855	     -1.32083826	     -0.56088707	    -25.51155504	     -0.04732597	     -3.45216926	     27.40203740	     19.56517803	      3.12665873	      2.57026362	     -0.67193064	     -1.29940979	     -4.40740604	      3.28744804	     -8.58382961	      1.59837594	      6.97810446
      1.00400000	     -4.82745701	      2.24523445	     -2.24936776	     -0.03420864	      1.00365235	      0.26595405	     -6.02876624	     -1.61272552	     -0.84811320	    -26.30126154	     -0.74483989	     -3.51636806	     32.97837347	     19.55762711	      3.43526886	      2.95347467	     -1.38273814	     -1.70798625	     -5.01089971	      3.59082754	     -8.58083976	      1.38255087	      6.87793359
      1.00816667	     -4.80258812	      2.42430175	     -2.19304916	     -0.02838445	      1.00304533	      0.26527986	     -5.89115473	     -1.89949685	     -1.13362834	    -27.18479105	     -1.35943898	     -3.49991855	     33.04980024	     19.62186493	      3.74788856	      3.36364270	     -2.15861953	     -2.04461113	     -5.64898863	      3.57876614	     -8.53303477	      1.17575828	      6.74623876
      1.01233333	     -4.74733750	      2.60224836	     -2.16053837	     -0.02255606	      1.00252317	      0.26463353	     -5.76792520	     -2.18864671	     -1.37538993	    -28.07909798	     -2.07773687	     -3.48405534	     33.24543175	     19.64188910	      4.05780654	      3.78221088	     -2.92999059	     -2.37973021	     -6.44530193	      3.55230076	     -8.52171373	      0.96290419	      6.61210535
      1.01650000	     -4.69812175	      2.80758590	     -2.11078209	     -0.01673864	      1.00200376	      0.26395748	     -5.60390312	     -2.51213946	     -1.65129441	    -29.03512859	     -2.82513781	     -3.53116947	     33.44863553	     19.68071418	      4.40188898	      4.14484338	     -3.73420991	     -2.68105897	     -7.07704276	      3.52212061	     -8.50362816	      0.72688371	      6.49328057
      1.02066667	     -4.56415417	      3.00184996	     -2.06068231	     -0.01091051	      1.00162456	      0.26325847	     -5.52647463	     -2.83339412	     -1.92761486	    -29.97789297	     -3.66278183	     -3.50705581	     34.47461627	     19.60666545	      4.74729161	      4.59483338	     -4.51194695	     -2.96153810	     -7.92905290	      3.37345120	     -8.60311377	      0.48428952	      6.36791904
      1.02483333	     -4.54879630	      3.20971949	     -2.05714378	     -0.00516135	      1.00109268	      0.26264097	     -5.24807703	     -3.16739354	     -2.12429427	    -31.03274587	     -4.55462234	     -3.64909275	     38.26196808	     19.70556286	      5.08147322	      4.82823423	     -5.39033311	     -3.04872952	     -8.44851789	      2.76066993	     -8.54787353	      0.24076011	      6.26060144
      1.02900000	     -4.51994187	      3.41739289	     -2.04176343	      0.00057907	      1.00059234	      0.26199400	     -4.96135136	     -3.50558137	     -2.33361964	    -32.12657630	     -5.47652839	     -3.75635199	     38.30629216	     19.78037282	      5.42259697	      5.08405347	     -6.25472437	     -3.12522577	     -8.97577739	      2.74793461	     -8.51569112	      0.00644749	      6.16119409
      1.03316667	     -4.43382412	      3.63456101	     -2.04705138	      0.00629775	      1.00020139	      0.26137889	     -4.71113602	     -3.85953973	     -2.50661758	    -33.24115363	     -6.45085275	     -3.82661110	     38.42878985	     19.77620126	      5.77431288	      5.36397740	     -7.09303541	     -3.17315823	     -9.62684406	      2.70984838	     -8.56422309	     -0.26437329	      6.05330689
